<?xml version="1.0" encoding="UTF-8" standalone="no"?>
<svg
   xmlns:dc="http://purl.org/dc/elements/1.1/"
   xmlns:cc="http://creativecommons.org/ns#"
   xmlns:rdf="http://www.w3.org/1999/02/22-rdf-syntax-ns#"
   xmlns:svg="http://www.w3.org/2000/svg"
   xmlns="http://www.w3.org/2000/svg"
   xmlns:sodipodi="http://sodipodi.sourceforge.net/DTD/sodipodi-0.dtd"
   xmlns:inkscape="http://www.inkscape.org/namespaces/inkscape"
   width="32"
   height="32"
   viewBox="0 0 32 32"
   fill="none"
   version="1.1"
   id="svg8"
   sodipodi:docname="icon.svg"
   inkscape:version="1.0.1 (3bc2e813f5, 2020-09-07)">
  <metadata
     id="metadata14">
    <rdf:RDF>
      <cc:Work
         rdf:about="">
        <dc:format>image/svg+xml</dc:format>
        <dc:type
           rdf:resource="http://purl.org/dc/dcmitype/StillImage" />
        <dc:title></dc:title>
      </cc:Work>
    </rdf:RDF>
  </metadata>
  <defs
     id="defs12" />
  <sodipodi:namedview
     pagecolor="#ffffff"
     bordercolor="#666666"
     borderopacity="1"
     objecttolerance="10"
     gridtolerance="10"
     guidetolerance="10"
     inkscape:pageopacity="0"
     inkscape:pageshadow="2"
     inkscape:window-width="1920"
     inkscape:window-height="1001"
     id="namedview10"
     showgrid="false"
     width="32px"
     inkscape:zoom="9.5725319"
     inkscape:cx="28.924288"
     inkscape:cy="22.711653"
     inkscape:window-x="-9"
     inkscape:window-y="-9"
     inkscape:window-maximized="1"
     inkscape:current-layer="svg8"
     showborder="true" />
  <path
     d="m 7.6786185,8.4999998 c -0.844206,0 -1.500807,0.407142 -2.157409,2.1642852 L 1.0344424,22.857128 C 0.89374145,23.221379 0.9406424,23.5 1.2845754,23.5 h 2.8452711 c 0.250132,0 0.359568,-0.08573 0.453363,-0.342844 l 0.797304,-2.250055 h 6.2221105 l 0.812923,2.250055 C 12.509337,23.414263 12.618737,23.5 12.868862,23.5 h 2.767141 c 0.343911,0 0.390843,-0.278621 0.250124,-0.642872 L 11.305567,10.664285 C 10.648981,8.9071418 9.9923185,8.4999998 8.9292715,8.4999998 Z m 0.562799,4.3071512 c 0.0469,-0.107143 0.0938,-0.150004 0.171963,-0.150004 h 0.07817 c 0.07817,0 0.125069,0.04285 0.171963,0.150004 l 1.7196485,4.735712 H 6.5686465 Z"
     fill="#000000"
     id="path2"
     style="fill:#000000;fill-opacity:1;stroke-width:0.0914259" />
  <path
     d="m 27.147524,8.5000003 c -0.427274,0 -0.621508,0.128573 -0.835145,0.40714 L 16.404549,22.77139 C 16.190912,23.028603 16.190912,23.5 16.656994,23.5 h 3.476695 c 0.427371,0 0.621603,-0.128553 0.835241,-0.407173 l 2.922035,-4.156296 2.479627,4.156296 C 26.584229,23.371448 26.778461,23.5 27.205832,23.5 h 3.670831 c 0.466179,0 0.466179,-0.471397 0.252542,-0.72861 l -4.816826,-7.207892 4.564284,-6.3349228 c 0.213733,-0.257147 0.213733,-0.728575 -0.252445,-0.728575 z"
     fill="#000000"
     id="path4"
     style="stroke-width:0.101906" />
  <path
     d="m 19.18799,7.9881513 2.633319,4.0882507 c 0.07073,0.109782 0.06603,0.258383 -0.01134,0.362431 l -2.001732,2.689545 c -0.112786,0.151475 -0.324738,0.143142 -0.427446,-0.01682 L 15.000204,8.2898991 C 14.80024,8.0485056 14.80024,7.6059475 15.236493,7.6059475 h 3.169736 c 0.400021,0 0.581823,0.1206973 0.781786,0.3822083 z"
     fill="#ff562f"
     id="path6"
     style="stroke-width:0.095524" />
</svg>
