<?xml version="1.0" standalone="no"?>
<!DOCTYPE svg PUBLIC "-//W3C//DTD SVG 20010904//EN"
 "http://www.w3.org/TR/2001/REC-SVG-20010904/DTD/svg10.dtd">
<svg version="1.0" xmlns="http://www.w3.org/2000/svg"
 width="700.000000pt" height="700.000000pt" viewBox="0 0 700.000000 700.000000"
 preserveAspectRatio="xMidYMid meet">
<metadata>
Created by potrace 1.11, written by Peter Selinger 2001-2013
</metadata>
<g transform="translate(0.000000,700.000000) scale(0.100000,-0.100000)"
fill="#000000" stroke="none">
<path d="M3572 4673 c-22 -8 -33 -52 -20 -76 6 -12 155 -224 332 -472 176
-247 339 -478 363 -511 47 -67 73 -81 102 -56 47 42 341 412 341 429 0 26
-443 648 -477 670 -24 16 -60 18 -328 20 -165 0 -306 -1 -313 -4z"/>
<path d="M2017 4489 c-55 -13 -113 -45 -163 -91 -83 -77 -51 -16 -646 -1198
-196 -388 -358 -714 -362 -726 -3 -11 0 -29 8 -40 14 -18 29 -19 324 -19 361
0 328 -10 392 123 23 48 58 121 79 162 l37 75 591 0 591 0 86 -172 c63 -126
93 -174 109 -179 36 -12 586 -11 611 1 11 6 22 19 24 29 3 16 -93 214 -213
441 -23 44 -91 175 -150 290 -59 116 -138 269 -175 340 -37 72 -118 229 -180
350 -216 421 -238 459 -314 528 -42 37 -120 75 -181 86 -62 12 -416 12 -468 0z
m448 -899 c91 -181 165 -333 165 -338 0 -4 -162 -8 -359 -8 -321 0 -359 2
-352 16 5 8 29 58 54 110 154 324 260 535 270 542 7 4 22 8 34 8 20 0 44 -43
188 -330z"/>
<path d="M5475 4492 c-46 -15 -6 33 -814 -992 -127 -162 -237 -302 -244 -310
-17 -22 -172 -217 -327 -415 -74 -93 -137 -172 -140 -175 -3 -3 -20 -24 -38
-47 -54 -70 -60 -112 -19 -130 12 -5 150 -9 317 -8 255 1 299 3 327 18 20 11
113 122 258 309 125 161 231 294 235 296 5 2 85 -113 178 -255 207 -315 226
-341 260 -355 18 -7 139 -11 346 -12 l318 -1 18 22 c10 13 16 31 13 41 -3 13
-295 419 -350 487 -5 6 -26 35 -48 65 -22 30 -43 60 -47 65 -5 6 -22 28 -38
50 -16 22 -33 45 -38 50 -4 6 -58 79 -121 164 -103 140 -112 157 -101 175 7
11 117 151 244 311 404 507 453 569 459 593 4 16 -1 30 -14 43 -18 18 -35 19
-316 18 -164 -1 -307 -4 -318 -7z"/>
</g>
</svg>
