<svg width="36" height="36" viewBox="0 0 36 36" fill="none" xmlns="http://www.w3.org/2000/svg">
<path fill-rule="evenodd" clip-rule="evenodd" d="M32.5088 1.21121C30.9672 1.21121 29.7118 2.47499 29.7118 4.02579L29.7062 5.37125C26.9779 2.29235 22.4443 0.402344 17.6988 0.402344C7.95428 0.402344 0.0263672 8.38209 0.0263672 18.1928C0.0263672 27.9287 8.01513 35.8506 17.834 35.8506C22.4217 35.8506 26.6781 34.0877 29.7118 30.9294V32.2249C29.7118 33.7768 30.9672 35.0406 32.6418 35.0406C34.1845 35.0406 35.4399 33.7768 35.4399 32.2249V4.02579C35.4399 2.47499 34.1846 1.21121 32.5088 1.21121ZM17.834 30.3519C11.1716 30.3519 5.75339 24.8975 5.75339 18.1928C5.75339 11.4134 11.1119 5.89764 17.6988 5.89764C24.173 5.89764 29.6442 11.5279 29.6442 18.1928C29.6442 24.8975 24.3465 30.3519 17.834 30.3519Z" fill="#1745C4"/>
</svg>
