<svg width="50" height="46" viewBox="0 0 50 46" fill="none" xmlns="http://www.w3.org/2000/svg">
<path d="M25.7322 1.23223C26.6334 0.331019 28.0515 0.261695 29.0322 1.02426L29.2678 1.23223L49.2678 21.2322C50.169 22.1334 50.2383 23.5515 49.4757 24.5322L49.2678 24.7678L29.2678 44.7678C28.2915 45.7441 26.7085 45.7441 25.7322 44.7678C24.831 43.8666 24.7617 42.4485 25.5243 41.4677L25.7322 41.2322L41.4645 25.5L2.5 25.5C1.11929 25.5 -1.04386e-06 24.3807 -9.83506e-07 23C-9.27464e-07 21.7179 0.965098 20.6612 2.20845 20.5168L2.5 20.5L41.4645 20.5L25.7322 4.76776C24.7559 3.79145 24.7559 2.20854 25.7322 1.23223Z" fill="#BCBCBC"/>
</svg>
