<svg width="41" height="52" viewBox="0 0 41 52" fill="none" xmlns="http://www.w3.org/2000/svg">
<path fill-rule="evenodd" clip-rule="evenodd" d="M37.0107 0.956933C35.2661 0.956933 33.8454 2.44996 33.8454 4.28341L33.8365 5.87025C30.749 2.23284 25.6197 0 20.2494 0C9.22178 0 0.25 9.42993 0.25 21.019C0.25 32.5209 9.29065 41.8798 20.4037 41.8798C25.5954 41.8798 30.411 39.7985 33.8454 36.0645V48.7539C33.8454 50.5445 35.2661 52 37.0107 52H37.1612C38.8944 52 40.25 50.574 40.25 48.7539V4.28341C40.25 2.4178 38.8944 0.956933 37.0107 0.956933ZM20.4037 35.385C12.8653 35.385 6.73366 28.9398 6.73366 21.019C6.73366 13.1451 12.9227 6.49347 20.2494 6.49347C27.5773 6.49347 33.7676 13.1451 33.7676 21.019C33.7676 28.9398 27.7737 35.385 20.4037 35.385Z" fill="#0899EB"/>
</svg>
