<svg width="40" height="42" viewBox="0 0 40 42" fill="none" xmlns="http://www.w3.org/2000/svg">
<path fill-rule="evenodd" clip-rule="evenodd" d="M36.6881 0.959679C34.9481 0.959679 33.5302 2.45699 33.5302 4.2957L33.5238 5.88844C30.4423 2.24059 25.3204 0 19.9605 0C8.95564 0 0 9.45699 0 21.0793C0 32.6142 9.02438 42 20.1146 42C25.2963 42 30.1025 39.9126 33.5302 36.168V37.7043C33.5302 39.543 34.9481 41.0403 36.8396 41.0403C38.5808 41.0403 40 39.543 40 37.7043V4.2957C40 2.45699 38.5808 0.959679 36.6881 0.959679ZM20.1146 35.4866C12.5896 35.4866 6.46853 29.0229 6.46853 21.0793C6.46853 13.047 12.5221 6.5121 19.9605 6.5121C27.2742 6.5121 33.4526 13.1828 33.4526 21.0793C33.4526 29.0229 27.4702 35.4866 20.1146 35.4866Z" fill="#0899EB"/>
</svg>
