<svg width="41" height="41" viewBox="0 0 41 41" fill="none" xmlns="http://www.w3.org/2000/svg">
<path fill-rule="evenodd" clip-rule="evenodd" d="M37.4574 0H36.9821C34.7599 0 33.7813 0.413571 32.7148 2.7567C32.6203 2.98631 22.9766 25.7542 22.2084 27.383C22.0766 27.6489 21.8862 28.1336 21.7184 28.609C21.4867 28.0343 21.2297 27.4502 21.1166 27.2205C20.3457 25.6683 7.61171 2.99034 7.49587 2.7097C6.56519 0.8352 5.7317 0 3.24989 0H2.7759C1.70143 0 0.850631 0.400145 0.380632 1.12927C-0.114666 1.89599 -0.129306 2.94334 0.352677 4.03635C0.895906 5.12802 19.7425 39.1994 19.8943 39.527C20.4695 40.8563 21.3483 41 21.7011 41C22.0539 41 22.934 40.8563 23.5039 39.5444C23.661 39.2007 39.2642 5.1965 39.9605 3.71677C40.3653 2.90037 40.3453 2.05443 39.9033 1.3347C39.4159 0.534416 38.4307 0 37.4574 0Z" fill="#1745C4"/>
</svg>
