<svg width="28" height="42" viewBox="0 0 28 42" fill="none" xmlns="http://www.w3.org/2000/svg">
<path fill-rule="evenodd" clip-rule="evenodd" d="M13.848 14.5464C13.3604 14.3179 12.9691 14.1378 12.7239 14.0115C12.0682 13.6566 10.0693 12.5746 10.0693 10.6095C10.0693 7.97101 12.5035 6.5113 14.1869 6.5113C16.1748 6.5113 16.6597 6.94814 17.3251 7.5503L17.5455 7.7452C17.7287 7.89843 17.9285 8.09198 18.142 8.29494C19.0498 9.16593 20.1836 10.2493 21.6204 10.2493C22.2528 10.2493 22.8534 10.0329 23.381 9.631C24.793 8.64711 25.2146 6.83524 24.377 5.31638C22.9567 2.83111 19.0168 0.911709 15.9544 0.183198C14.7572 -0.108475 12.5751 -0.0533631 10.8931 0.35928C9.45487 0.796118 8.17094 1.23162 7.01375 2.09857C4.3481 4.10937 2.82173 7.21293 2.82173 10.6095C2.82173 15.2225 5.30279 17.6728 7.18734 19.1299C8.63795 20.1917 10.1616 20.7576 11.7761 21.3571C13.2157 21.892 14.7035 22.4445 16.245 23.3988C19.9907 25.7819 21.1286 27.2981 20.9289 29.6462C20.7126 32.3465 18.0084 35.4864 14.8413 35.4864C11.805 35.4864 9.60088 34.3399 7.68189 31.7551C7.57581 31.618 7.45735 31.4299 7.32648 31.2188C6.66936 30.1758 5.56592 28.4298 3.61662 28.4298C3.06144 28.4298 2.48698 28.5763 1.90563 28.8693C-0.651187 30.1624 -0.0436572 32.7915 0.395796 33.6517C3.65795 39.2687 8.38309 42 14.8413 42C19.4604 42 23.319 40.0927 25.7064 36.6289C28.1737 33.0495 28.7013 28.1664 27.0413 24.1878C25.2022 19.853 17.5345 16.2682 13.848 14.5464Z" fill="#1745C4"/>
</svg>
