<svg width="42" height="42" viewBox="0 0 42 42" fill="none" xmlns="http://www.w3.org/2000/svg">
<path fill-rule="evenodd" clip-rule="evenodd" d="M38.5237 0.958367C36.6954 0.958367 35.2065 2.45572 35.2065 4.29315L35.1998 5.88729C31.9641 2.23932 26.5873 0 20.9592 0C9.40239 0 0 9.4546 0 21.0786C0 32.6139 9.47456 42 21.1196 42C26.5606 42 31.6086 39.9112 35.2065 36.1692V37.7042C35.2065 39.5429 36.6954 41.0403 38.6814 41.0403C40.5111 41.0403 42 39.5429 42 37.7042V4.29315C42 2.45572 40.5111 0.958367 38.5237 0.958367ZM21.1196 35.485C13.2181 35.485 6.79217 29.0224 6.79217 21.0786C6.79217 13.0461 13.1473 6.51096 20.9592 6.51096C28.6375 6.51096 35.1263 13.1819 35.1263 21.0786C35.1263 29.0224 28.8433 35.485 21.1196 35.485Z" fill="#1745C4"/>
</svg>
