<svg width="113" height="90" viewBox="0 0 113 90" fill="none" xmlns="http://www.w3.org/2000/svg">
<path fill-rule="evenodd" clip-rule="evenodd" d="M112.288 13.8971C112.125 6.7727 106.243 0.982443 99.1756 0.982443C97.5371 0.982443 95.9199 1.29442 94.3682 1.91156C92.5121 2.64783 90.815 3.83219 89.4604 5.33534C88.6344 6.18732 87.9458 7.04043 87.3542 7.93665L59.6837 49.8059C58.7788 50.9347 57.4479 51.5814 56.0302 51.5814C54.892 51.5814 53.7944 51.1593 52.929 50.3902L52.6179 50.0896L48.6613 44.0894L24.899 8.11816C24.7987 7.98543 24.7435 7.91056 24.6894 7.83228L24.5789 7.65417C22.4017 3.76867 18.4665 1.26719 14.0524 0.962024L13.9013 0.950682C13.6489 0.93253 13.3965 0.912109 13.1407 0.912109C5.90019 0.912109 0.00976562 6.8419 0.00976562 14.1308C0.00976562 14.85 0.0796349 15.5987 0.222754 16.4201L0.343335 17.1132C0.798612 19.2335 1.61112 21.1757 2.77185 22.9319L41.316 81.2904C41.6699 81.9167 42.0913 82.5519 42.5646 83.1793C45.8237 87.4914 50.7585 89.9633 56.1046 89.9633C61.1499 89.9633 65.9077 87.7239 69.1566 83.8191C69.9353 82.8821 70.625 81.8384 71.2043 80.7175L71.3282 80.5054L109.481 22.7503C110.063 21.8689 110.568 20.9295 110.981 19.9585C111.873 18.0719 112.307 16.1626 112.307 14.2C112.296 14.0729 112.291 13.9856 112.288 13.8971Z" fill="#1745C4"/>
</svg>
