<svg width="36" height="37" viewBox="0 0 36 37" fill="none" xmlns="http://www.w3.org/2000/svg">
<path fill-rule="evenodd" clip-rule="evenodd" d="M32.5515 1.44281C31.011 1.44281 29.7556 2.7066 29.7556 4.25853L29.75 5.60286C27.0217 2.52395 22.487 0.632812 17.7415 0.632812C7.99812 0.632812 0.0690918 8.61483 0.0690918 18.4244C0.0690918 28.1603 8.05898 36.0822 17.8779 36.0822C22.4656 36.0822 26.7208 34.3204 29.7556 31.1598V32.4565C29.7556 34.0084 31.011 35.2722 32.6856 35.2722C34.2273 35.2722 35.4838 34.0084 35.4838 32.4565V4.25853C35.4838 2.7066 34.2273 1.44281 32.5515 1.44281ZM17.8779 30.5847C11.2155 30.5847 5.79612 25.1291 5.79612 18.4244C5.79612 11.645 11.1558 6.12924 17.7415 6.12924C24.2168 6.12924 29.6869 11.7595 29.6869 18.4244C29.6869 25.1291 24.3903 30.5847 17.8779 30.5847Z" fill="#0899EB"/>
</svg>
