<svg width="37" height="45" viewBox="0 0 37 45" fill="none" xmlns="http://www.w3.org/2000/svg">
<path fill-rule="evenodd" clip-rule="evenodd" d="M33.3734 1.44281C31.8318 1.44281 30.5764 2.7066 30.5764 4.25853L30.5685 5.60172C27.8402 2.52281 23.3078 0.632812 18.5623 0.632812C8.81778 0.632812 0.889893 8.61483 0.889893 18.4244C0.889893 28.1603 8.87864 36.0822 18.6986 36.0822C23.2863 36.0822 27.5416 34.3204 30.5764 31.1598V41.9008C30.5764 43.4165 31.8318 44.6485 33.3734 44.6485H33.5064C35.0379 44.6485 36.2358 43.4414 36.2358 41.9008V4.25853C36.2358 2.67937 35.0379 1.44281 33.3734 1.44281ZM18.6986 30.5847C12.0374 30.5847 6.61917 25.1291 6.61917 18.4244C6.61917 11.7595 12.0881 6.12924 18.5623 6.12924C25.0376 6.12924 30.5077 11.7595 30.5077 18.4244C30.5077 25.1291 25.2111 30.5847 18.6986 30.5847Z" fill="#0899EB"/>
</svg>
