<svg width="33" height="35" viewBox="0 0 33 35" fill="none" xmlns="http://www.w3.org/2000/svg">
<path fill-rule="evenodd" clip-rule="evenodd" d="M29.8205 0.210938H29.4181C27.5373 0.210938 26.709 0.560349 25.8064 2.53997C25.7263 2.73396 17.564 21.9698 16.9138 23.3458C16.8022 23.5705 16.6411 23.98 16.4991 24.3816C16.303 23.8961 16.0855 23.4026 15.9897 23.2086C15.3372 21.8972 7.31016 2.73737 7.21212 2.50026C6.4244 0.916568 5.71894 0.210938 3.61836 0.210938H3.21718C2.30775 0.210938 1.58764 0.549006 1.18984 1.16501C0.770624 1.81279 0.758232 2.69766 1.16618 3.6211C1.62596 4.54341 14.8267 33.329 14.9552 33.6059C15.442 34.729 16.1858 34.8503 16.4845 34.8503C16.7831 34.8503 17.528 34.729 18.0103 33.6206C18.1433 33.3302 31.3497 4.60127 31.9391 3.3511C32.2817 2.66136 32.2648 1.94665 31.8906 1.33858C31.4782 0.662447 30.6443 0.210938 29.8205 0.210938Z" fill="#1745C4"/>
</svg>
