<svg width="24" height="36" viewBox="0 0 24 36" fill="none" xmlns="http://www.w3.org/2000/svg">
<path fill-rule="evenodd" clip-rule="evenodd" d="M12.3189 12.6788C11.92 12.4859 11.5999 12.3339 11.3993 12.2273C10.8629 11.9278 9.22774 11.0145 9.22774 9.35595C9.22774 7.12902 11.219 5.897 12.5961 5.897C14.2223 5.897 14.6189 6.2657 15.1632 6.77393L15.3435 6.93843C15.4934 7.06776 15.6568 7.23112 15.8315 7.40242C16.5741 8.13755 17.5016 9.05191 18.677 9.05191C19.1943 9.05191 19.6856 8.86927 20.1172 8.53007C21.2723 7.69965 21.6171 6.17041 20.932 4.88847C19.7701 2.79087 16.5471 1.17086 14.042 0.555989C13.0627 0.309813 11.2776 0.356328 9.90165 0.704605C8.72514 1.0733 7.67483 1.44087 6.72822 2.17259C4.54762 3.86974 3.29899 6.48919 3.29899 9.35595C3.29899 13.2494 5.32859 15.3175 6.87022 16.5472C8.05687 17.4435 9.30324 17.9211 10.624 18.427C11.8016 18.8786 13.0187 19.3448 14.2797 20.1503C17.3438 22.1617 18.2747 23.4413 18.1113 25.4232C17.9344 27.7023 15.7222 30.3524 13.1314 30.3524C10.6477 30.3524 8.84458 29.3847 7.27478 27.2032C7.188 27.0875 7.09109 26.9286 6.98404 26.7505C6.44649 25.8702 5.54384 24.3965 3.94924 24.3965C3.49509 24.3965 3.02516 24.5202 2.5496 24.7675C0.458029 25.8588 0.95501 28.0778 1.3145 28.8039C3.98305 33.5448 7.84839 35.85 13.1314 35.85C16.91 35.85 20.0665 34.2402 22.0194 31.3167C24.0378 28.2957 24.4694 24.1742 23.1114 20.8162C21.607 17.1576 15.3345 14.132 12.3189 12.6788Z" fill="#1745C4"/>
</svg>
