<svg width="24" height="24" viewBox="0 0 24 24" fill="none" xmlns="http://www.w3.org/2000/svg">
<path d="M20.7071 12.2929C21.0676 12.6534 21.0953 13.2206 20.7903 13.6129L20.7071 13.7071L12.7071 21.7071C12.3466 22.0676 11.7794 22.0953 11.3871 21.7903L11.2929 21.7071L3.29289 13.7071C2.90237 13.3166 2.90237 12.6834 3.29289 12.2929C3.65338 11.9324 4.22061 11.9047 4.6129 12.2097L4.70711 12.2929L11 18.5858L11 3C11 2.44772 11.4477 2 12 2C12.5128 2 12.9355 2.38604 12.9933 2.88338L13 3L13 18.5858L19.2929 12.2929C19.6834 11.9024 20.3166 11.9024 20.7071 12.2929Z" fill="white"/>
</svg>
