<svg width="22" height="26" viewBox="0 0 22 26" fill="none" xmlns="http://www.w3.org/2000/svg">
<path d="M7.43774 15.8755C7.12724 15.8755 6.87524 15.6235 6.87524 15.313V2.37549C6.87524 1.13461 7.88437 0.125488 9.12524 0.125488C10.3661 0.125488 11.3752 1.13461 11.3752 2.37549V14.188C11.3752 14.4985 11.1232 14.7505 10.8127 14.7505C10.5022 14.7505 10.2502 14.4985 10.2502 14.188V2.37549C10.2502 1.75449 9.74512 1.25049 9.12524 1.25049C8.50537 1.25049 8.00024 1.75449 8.00024 2.37549V15.313C8.00024 15.6235 7.74824 15.8755 7.43774 15.8755Z" fill="white"/>
<path d="M14.1877 14.7505C13.8772 14.7505 13.6252 14.4985 13.6252 14.188V9.12549C13.6252 8.50449 13.1201 8.00049 12.5002 8.00049C11.8804 8.00049 11.3752 8.50449 11.3752 9.12549C11.3752 9.43599 11.1232 9.68799 10.8127 9.68799C10.5022 9.68799 10.2502 9.43599 10.2502 9.12549C10.2502 7.88461 11.2594 6.87549 12.5002 6.87549C13.7411 6.87549 14.7502 7.88461 14.7502 9.12549V14.188C14.7502 14.4985 14.4982 14.7505 14.1877 14.7505Z" fill="white"/>
<path d="M17.5628 14.7507C17.2523 14.7507 17.0003 14.4987 17.0003 14.1882V10.2507C17.0003 9.62968 16.4951 9.12568 15.8753 9.12568C15.2554 9.12568 14.7503 9.62968 14.7503 10.2507C14.7503 10.5612 14.4983 10.8132 14.1878 10.8132C13.8773 10.8132 13.6253 10.5612 13.6253 10.2507C13.6253 9.0098 14.6344 8.00068 15.8753 8.00068C17.1161 8.00068 18.1253 9.0098 18.1253 10.2507V14.1882C18.1253 14.4987 17.8733 14.7507 17.5628 14.7507Z" fill="white"/>
<path d="M16.4377 26.0003H9.92737C8.17349 26.0003 6.57037 25.1127 5.63887 23.6277L0.482994 15.4062C0.480744 15.4017 0.478494 15.3983 0.476244 15.3949C0.246744 15.045 0.125244 14.6277 0.125244 14.1878C0.125244 12.9469 1.13437 11.9378 2.37524 11.9378C2.78924 11.9378 3.18637 12.0469 3.52387 12.2539C3.53287 12.2584 3.54187 12.264 3.54974 12.2697L7.73137 14.8336C7.99574 14.9956 8.08012 15.342 7.91699 15.6075C7.75499 15.8708 7.40624 15.9552 7.14299 15.792L2.98612 13.2428C2.97374 13.236 2.96249 13.2293 2.95012 13.2214C2.78699 13.1179 2.58787 13.0628 2.37524 13.0628C1.75537 13.0628 1.25024 13.5668 1.25024 14.1878C1.25024 14.397 1.30537 14.5984 1.40549 14.7616C1.41112 14.7694 1.41562 14.7773 1.42124 14.7852L6.59174 23.0303C7.31624 24.1857 8.56274 24.8753 9.92737 24.8753H16.4377C18.609 24.8753 20.3752 23.109 20.3752 20.9378V11.3753C20.3752 10.7543 19.8701 10.2503 19.2502 10.2503C18.6304 10.2503 18.1252 10.7543 18.1252 11.3753C18.1252 11.6858 17.8732 11.9378 17.5627 11.9378C17.2522 11.9378 17.0002 11.6858 17.0002 11.3753C17.0002 10.1344 18.0094 9.1253 19.2502 9.1253C20.4911 9.1253 21.5002 10.1344 21.5002 11.3753V20.9378C21.5002 23.7289 19.2289 26.0003 16.4377 26.0003Z" fill="white"/>
</svg>
