<svg width="18" height="20" viewBox="0 0 18 20" fill="none" xmlns="http://www.w3.org/2000/svg">
<path d="M17.7071 10.2929C18.0676 10.6534 18.0953 11.2206 17.7903 11.6129L17.7071 11.7071L9.70711 19.7071C9.34662 20.0676 8.77939 20.0953 8.3871 19.7903L8.29289 19.7071L0.292893 11.7071C-0.0976311 11.3166 -0.0976311 10.6834 0.292893 10.2929C0.653377 9.93241 1.22061 9.90468 1.6129 10.2097L1.70711 10.2929L8 16.5858L8 1C8 0.447716 8.44772 -4.82823e-08 9 0C9.51284 4.48335e-08 9.93551 0.38604 9.99328 0.883379L10 1L10 16.5858L16.2929 10.2929C16.6834 9.90237 17.3166 9.90237 17.7071 10.2929Z" fill="white"/>
</svg>
