<svg width="25" height="23" viewBox="0 0 25 23" fill="none" xmlns="http://www.w3.org/2000/svg">
<g filter="url(#filter0_ii)">
<path d="M12.1632 21.6583C11.7486 22.0789 11.0963 22.1112 10.6452 21.7553L10.5368 21.6583L1.33683 12.325C0.922269 11.9044 0.89038 11.2426 1.24116 10.785L1.33683 10.675L10.5368 1.34171C10.9859 0.886097 11.7141 0.886097 12.1632 1.34171C12.5777 1.76227 12.6096 2.42404 12.2588 2.88172L12.1632 2.99163L4.92635 10.3333L22.85 10.3333C23.4851 10.3333 24 10.8557 24 11.5C24 12.0983 23.5561 12.5914 22.9841 12.6588L22.85 12.6667L4.92635 12.6667L12.1632 20.0084C12.6123 20.464 12.6123 21.2027 12.1632 21.6583Z" fill="#C5C7D0"/>
<path d="M12.1632 21.6583C11.7486 22.0789 11.0963 22.1112 10.6452 21.7553L10.5368 21.6583L1.33683 12.325C0.922269 11.9044 0.89038 11.2426 1.24116 10.785L1.33683 10.675L10.5368 1.34171C10.9859 0.886097 11.7141 0.886097 12.1632 1.34171C12.5777 1.76227 12.6096 2.42404 12.2588 2.88172L12.1632 2.99163L4.92635 10.3333L22.85 10.3333C23.4851 10.3333 24 10.8557 24 11.5C24 12.0983 23.5561 12.5914 22.9841 12.6588L22.85 12.6667L4.92635 12.6667L12.1632 20.0084C12.6123 20.464 12.6123 21.2027 12.1632 21.6583Z" fill="#C4C9DC"/>
<path d="M12.1632 21.6583C11.7486 22.0789 11.0963 22.1112 10.6452 21.7553L10.5368 21.6583L1.33683 12.325C0.922269 11.9044 0.89038 11.2426 1.24116 10.785L1.33683 10.675L10.5368 1.34171C10.9859 0.886097 11.7141 0.886097 12.1632 1.34171C12.5777 1.76227 12.6096 2.42404 12.2588 2.88172L12.1632 2.99163L4.92635 10.3333L22.85 10.3333C23.4851 10.3333 24 10.8557 24 11.5C24 12.0983 23.5561 12.5914 22.9841 12.6588L22.85 12.6667L4.92635 12.6667L12.1632 20.0084C12.6123 20.464 12.6123 21.2027 12.1632 21.6583Z" fill="url(#paint0_linear)" fill-opacity="0.4" style="mix-blend-mode:soft-light"/>
</g>
<path d="M12.1632 21.6583C11.7486 22.0789 11.0963 22.1112 10.6452 21.7553L10.5368 21.6583L1.33683 12.325C0.922269 11.9044 0.89038 11.2426 1.24116 10.785L1.33683 10.675L10.5368 1.34171C10.9859 0.886097 11.7141 0.886097 12.1632 1.34171C12.5777 1.76227 12.6096 2.42404 12.2588 2.88172L12.1632 2.99163L4.92635 10.3333L22.85 10.3333C23.4851 10.3333 24 10.8557 24 11.5C24 12.0983 23.5561 12.5914 22.9841 12.6588L22.85 12.6667L4.92635 12.6667L12.1632 20.0084C12.6123 20.464 12.6123 21.2027 12.1632 21.6583Z" stroke="white" stroke-opacity="0.4"/>
<defs>
<filter id="filter0_ii" x="0" y="0" width="25" height="23" filterUnits="userSpaceOnUse" color-interpolation-filters="sRGB">
<feFlood flood-opacity="0" result="BackgroundImageFix"/>
<feBlend mode="normal" in="SourceGraphic" in2="BackgroundImageFix" result="shape"/>
<feColorMatrix in="SourceAlpha" type="matrix" values="0 0 0 0 0 0 0 0 0 0 0 0 0 0 0 0 0 0 127 0" result="hardAlpha"/>
<feOffset dx="0.5" dy="0.5"/>
<feGaussianBlur stdDeviation="0.5"/>
<feComposite in2="hardAlpha" operator="arithmetic" k2="-1" k3="1"/>
<feColorMatrix type="matrix" values="0 0 0 0 0.65098 0 0 0 0 0.670588 0 0 0 0 0.741176 0 0 0 1 0"/>
<feBlend mode="normal" in2="shape" result="effect1_innerShadow"/>
<feColorMatrix in="SourceAlpha" type="matrix" values="0 0 0 0 0 0 0 0 0 0 0 0 0 0 0 0 0 0 127 0" result="hardAlpha"/>
<feOffset dx="-0.5" dy="-0.5"/>
<feGaussianBlur stdDeviation="0.25"/>
<feComposite in2="hardAlpha" operator="arithmetic" k2="-1" k3="1"/>
<feColorMatrix type="matrix" values="0 0 0 0 0.980392 0 0 0 0 0.984314 0 0 0 0 1 0 0 0 1 0"/>
<feBlend mode="normal" in2="effect1_innerShadow" result="effect2_innerShadow"/>
</filter>
<linearGradient id="paint0_linear" x1="12.5" y1="33.5396" x2="35.682" y2="10.4372" gradientUnits="userSpaceOnUse">
<stop/>
<stop offset="1" stop-color="white"/>
</linearGradient>
</defs>
</svg>
