<svg width="25" height="23" viewBox="0 0 25 23" fill="none" xmlns="http://www.w3.org/2000/svg">
<g filter="url(#filter0_ii)">
<path d="M12.8368 1.34171C13.2514 0.921144 13.9037 0.888792 14.3548 1.24465L14.4632 1.34171L23.6632 10.675C24.0777 11.0956 24.1096 11.7574 23.7588 12.2151L23.6632 12.325L14.4632 21.6583C14.0141 22.1139 13.2859 22.1139 12.8368 21.6583C12.4223 21.2377 12.3904 20.576 12.7412 20.1183L12.8368 20.0084L20.0737 12.6667L2.15 12.6667C1.51487 12.6667 1 12.1443 1 11.5C1 10.9017 1.44395 10.4086 2.01589 10.3412L2.15 10.3333L20.0737 10.3333L12.8368 2.99162C12.3877 2.53601 12.3877 1.79732 12.8368 1.34171Z" fill="#C5C7D0"/>
<path d="M12.8368 1.34171C13.2514 0.921144 13.9037 0.888792 14.3548 1.24465L14.4632 1.34171L23.6632 10.675C24.0777 11.0956 24.1096 11.7574 23.7588 12.2151L23.6632 12.325L14.4632 21.6583C14.0141 22.1139 13.2859 22.1139 12.8368 21.6583C12.4223 21.2377 12.3904 20.576 12.7412 20.1183L12.8368 20.0084L20.0737 12.6667L2.15 12.6667C1.51487 12.6667 1 12.1443 1 11.5C1 10.9017 1.44395 10.4086 2.01589 10.3412L2.15 10.3333L20.0737 10.3333L12.8368 2.99162C12.3877 2.53601 12.3877 1.79732 12.8368 1.34171Z" fill="#FD6811"/>
<path d="M12.8368 1.34171C13.2514 0.921144 13.9037 0.888792 14.3548 1.24465L14.4632 1.34171L23.6632 10.675C24.0777 11.0956 24.1096 11.7574 23.7588 12.2151L23.6632 12.325L14.4632 21.6583C14.0141 22.1139 13.2859 22.1139 12.8368 21.6583C12.4223 21.2377 12.3904 20.576 12.7412 20.1183L12.8368 20.0084L20.0737 12.6667L2.15 12.6667C1.51487 12.6667 1 12.1443 1 11.5C1 10.9017 1.44395 10.4086 2.01589 10.3412L2.15 10.3333L20.0737 10.3333L12.8368 2.99162C12.3877 2.53601 12.3877 1.79732 12.8368 1.34171Z" fill="url(#paint0_linear)" fill-opacity="0.4" style="mix-blend-mode:soft-light"/>
</g>
<path d="M12.8368 1.34171C13.2514 0.921144 13.9037 0.888792 14.3548 1.24465L14.4632 1.34171L23.6632 10.675C24.0777 11.0956 24.1096 11.7574 23.7588 12.2151L23.6632 12.325L14.4632 21.6583C14.0141 22.1139 13.2859 22.1139 12.8368 21.6583C12.4223 21.2377 12.3904 20.576 12.7412 20.1183L12.8368 20.0084L20.0737 12.6667L2.15 12.6667C1.51487 12.6667 1 12.1443 1 11.5C1 10.9017 1.44395 10.4086 2.01589 10.3412L2.15 10.3333L20.0737 10.3333L12.8368 2.99162C12.3877 2.53601 12.3877 1.79732 12.8368 1.34171Z" stroke="white" stroke-opacity="0.4"/>
<defs>
<filter id="filter0_ii" x="0" y="0" width="25" height="23" filterUnits="userSpaceOnUse" color-interpolation-filters="sRGB">
<feFlood flood-opacity="0" result="BackgroundImageFix"/>
<feBlend mode="normal" in="SourceGraphic" in2="BackgroundImageFix" result="shape"/>
<feColorMatrix in="SourceAlpha" type="matrix" values="0 0 0 0 0 0 0 0 0 0 0 0 0 0 0 0 0 0 127 0" result="hardAlpha"/>
<feOffset dx="0.5" dy="0.5"/>
<feGaussianBlur stdDeviation="0.5"/>
<feComposite in2="hardAlpha" operator="arithmetic" k2="-1" k3="1"/>
<feColorMatrix type="matrix" values="0 0 0 0 0.65098 0 0 0 0 0.670588 0 0 0 0 0.741176 0 0 0 1 0"/>
<feBlend mode="normal" in2="shape" result="effect1_innerShadow"/>
<feColorMatrix in="SourceAlpha" type="matrix" values="0 0 0 0 0 0 0 0 0 0 0 0 0 0 0 0 0 0 127 0" result="hardAlpha"/>
<feOffset dx="-0.5" dy="-0.5"/>
<feGaussianBlur stdDeviation="0.25"/>
<feComposite in2="hardAlpha" operator="arithmetic" k2="-1" k3="1"/>
<feColorMatrix type="matrix" values="0 0 0 0 0.980392 0 0 0 0 0.984314 0 0 0 0 1 0 0 0 1 0"/>
<feBlend mode="normal" in2="effect1_innerShadow" result="effect2_innerShadow"/>
</filter>
<linearGradient id="paint0_linear" x1="12.5" y1="-10.5396" x2="-10.682" y2="12.5628" gradientUnits="userSpaceOnUse">
<stop/>
<stop offset="1" stop-color="white"/>
</linearGradient>
</defs>
</svg>
