<svg width="20" height="20" viewBox="0 0 20 20" fill="none" xmlns="http://www.w3.org/2000/svg">
<mask id="path-1-inside-1" fill="white">
<path d="M9.91243 20.0009C9.80326 20.0009 9.69659 19.9576 9.61742 19.8793C9.51908 19.7809 9.47574 19.6392 9.50324 19.5034L10.0924 16.5574C10.1091 16.4757 10.1474 16.4016 10.2066 16.3441L16.6886 9.86209C17.1753 9.3754 17.9695 9.3754 18.4562 9.86209L19.6346 11.0405C20.1221 11.528 20.1221 12.3205 19.6346 12.8081L13.1526 19.2901C13.0951 19.3484 13.0209 19.3876 12.9393 19.4042L9.99327 19.9934C9.9666 19.9984 9.9391 20.0009 9.91243 20.0009ZM10.8858 16.8433L10.4441 19.0525L12.6534 18.6109L19.0462 12.218C19.2087 12.0555 19.2087 11.7914 19.0462 11.6288L17.8678 10.4505C17.7053 10.2879 17.4411 10.2879 17.2786 10.4505L10.8858 16.8433ZM12.8584 18.995H12.8668H12.8584Z"/>
</mask>
<path d="M9.91243 20.0009C9.80326 20.0009 9.69659 19.9576 9.61742 19.8793C9.51908 19.7809 9.47574 19.6392 9.50324 19.5034L10.0924 16.5574C10.1091 16.4757 10.1474 16.4016 10.2066 16.3441L16.6886 9.86209C17.1753 9.3754 17.9695 9.3754 18.4562 9.86209L19.6346 11.0405C20.1221 11.528 20.1221 12.3205 19.6346 12.8081L13.1526 19.2901C13.0951 19.3484 13.0209 19.3876 12.9393 19.4042L9.99327 19.9934C9.9666 19.9984 9.9391 20.0009 9.91243 20.0009ZM10.8858 16.8433L10.4441 19.0525L12.6534 18.6109L19.0462 12.218C19.2087 12.0555 19.2087 11.7914 19.0462 11.6288L17.8678 10.4505C17.7053 10.2879 17.4411 10.2879 17.2786 10.4505L10.8858 16.8433ZM12.8584 18.995H12.8668H12.8584Z" fill="#80868C"/>
<path d="M9.61742 19.8793L-5.46752 34.9642L-5.42761 35.0041L-5.38749 35.0438L9.61742 19.8793ZM9.50324 19.5034L30.4124 23.7365L30.4174 23.7119L30.4223 23.6872L9.50324 19.5034ZM10.0924 16.5574L-10.81 12.2916L-10.8184 12.3326L-10.8266 12.3736L10.0924 16.5574ZM10.2066 16.3441L25.0745 31.643L25.1838 31.5368L25.2915 31.429L10.2066 16.3441ZM16.6886 9.86209L31.7735 24.947L16.6886 9.86209ZM18.4562 9.86209L33.5411 -5.22286L33.5411 -5.22287L18.4562 9.86209ZM19.6346 11.0405L4.54966 26.1254L4.54966 26.1254L19.6346 11.0405ZM19.6346 12.8081L34.7195 27.893L34.7195 27.893L19.6346 12.8081ZM13.1526 19.2901L-1.93233 4.2051L-1.9866 4.25936L-2.04047 4.31401L13.1526 19.2901ZM12.9393 19.4042L17.1231 40.3233L17.1641 40.3151L17.2051 40.3067L12.9393 19.4042ZM9.99327 19.9934L13.9248 40.9614L14.0511 40.9377L14.1771 40.9125L9.99327 19.9934ZM10.8858 16.8433L-4.19912 1.75831L-8.76707 6.32626L-10.0335 12.661L10.8858 16.8433ZM10.4441 19.0525L-10.4752 14.8702L-16.7477 46.2443L14.6264 39.9719L10.4441 19.0525ZM12.6534 18.6109L16.8357 39.5302L23.1704 38.2638L27.7383 33.6958L12.6534 18.6109ZM19.0462 11.6288L3.96129 26.7138L3.9613 26.7138L19.0462 11.6288ZM17.8678 10.4505L32.9528 -4.6345L32.9528 -4.63451L17.8678 10.4505ZM17.2786 10.4505L2.19371 -4.63451L2.19371 -4.63451L17.2786 10.4505ZM9.91243 -1.33241C15.4134 -1.33241 20.7012 0.834884 24.6223 4.71469L-5.38749 35.0438C-1.30806 39.0803 4.1931 41.3343 9.91243 41.3343V-1.33241ZM24.7024 4.79429C29.6004 9.69233 31.8205 16.7812 30.4124 23.7365L-11.4059 15.2703C-12.869 22.4973 -10.5622 29.8695 -5.46752 34.9642L24.7024 4.79429ZM30.4223 23.6872L31.0115 20.7412L-10.8266 12.3736L-11.4158 15.3196L30.4223 23.6872ZM30.9949 20.8232C30.2321 24.5609 28.3574 28.4526 25.0745 31.643L-4.6613 1.04518C-8.06251 4.35057 -10.0139 8.39058 -10.81 12.2916L30.9949 20.8232ZM25.2915 31.429L31.7735 24.947L1.60368 -5.22287L-4.87832 1.25912L25.2915 31.429ZM31.7735 24.947C23.9291 32.7915 11.2158 32.7915 3.37127 24.947L33.5411 -5.22287C24.7233 -14.0407 10.4216 -14.0407 1.60368 -5.22287L31.7735 24.947ZM3.37126 24.947L4.54966 26.1254L34.7195 -4.04447L33.5411 -5.22286L3.37126 24.947ZM4.54966 26.1254C-3.29401 18.2818 -3.29401 5.56677 4.54966 -2.27689L34.7195 27.893C43.5383 19.0743 43.5383 4.77424 34.7195 -4.04448L4.54966 26.1254ZM4.54966 -2.27689L-1.93233 4.2051L28.2375 34.375L34.7195 27.893L4.54966 -2.27689ZM-2.04047 4.31401C1.01964 1.20956 4.81118 -0.710044 8.67345 -1.49826L17.2051 40.3067C21.2307 39.4852 25.1706 37.4872 28.3457 34.2661L-2.04047 4.31401ZM8.75546 -1.51483L5.80947 -0.925635L14.1771 40.9125L17.1231 40.3233L8.75546 -1.51483ZM6.06179 -0.97452C7.34872 -1.21582 8.63777 -1.33241 9.91243 -1.33241V41.3343C11.2404 41.3343 12.5845 41.2127 13.9248 40.9614L6.06179 -0.97452ZM-10.0335 12.661L-10.4752 14.8702L31.3635 23.2348L31.8052 21.0256L-10.0335 12.661ZM14.6264 39.9719L16.8357 39.5302L8.47113 -2.30851L6.26185 -1.86682L14.6264 39.9719ZM27.7383 33.6958L34.1312 27.303L3.9613 -2.86692L-2.43153 3.5259L27.7383 33.6958ZM34.1312 27.303C42.6249 18.8093 42.6249 5.03758 34.1312 -3.45611L3.9613 26.7138C-4.20739 18.5451 -4.20739 5.30176 3.9613 -2.86692L34.1312 27.303ZM34.1312 -3.45611L32.9528 -4.6345L2.7829 25.5354L3.96129 26.7138L34.1312 -3.45611ZM32.9528 -4.63451C24.4591 -13.1282 10.6874 -13.1282 2.19371 -4.63451L32.3636 25.5354C24.1949 33.7041 10.9516 33.7041 2.78291 25.5354L32.9528 -4.63451ZM2.19371 -4.63451L-4.19912 1.75831L25.9707 31.9282L32.3636 25.5354L2.19371 -4.63451ZM12.8584 40.3284H12.8668V-2.33829H12.8584V40.3284ZM12.8668 -2.33829H12.8584V40.3284H12.8668V-2.33829Z" fill="#80868C" mask="url(#path-1-inside-1)"/>
<path d="M0.833375 9.67562V12.7457C0.550277 12.6618 0.272293 12.5661 0 12.459L0 10.5734C0.25984 10.2577 0.538185 9.95795 0.833375 9.67562Z" fill="#80868C" stroke="#80868C" stroke-width="21.3333"/>
<path d="M13.7512 10.0004C13.5211 10.0004 13.3345 9.8137 13.3345 9.58369V4.58344C13.3345 3.89424 12.7736 3.33338 12.0844 3.33338H10.4177C10.1877 3.33338 10.001 3.1467 10.001 2.91669C10.001 2.68668 10.1877 2.5 10.4177 2.5H12.0844C12.5527 2.5 12.9853 2.65512 13.3335 2.91669C13.4916 3.03547 13.6324 3.17621 13.7512 3.33435C14.0127 3.68257 14.1678 4.11515 14.1678 4.58344V9.58369C14.1678 9.8137 13.9812 10.0004 13.7512 10.0004Z" fill="#80868C" stroke="#80868C" stroke-width="21.3333"/>
<path d="M10.8344 2.08344V2.50013H10.4177H10.001H9.58431H9.13744H9.12595H8.75093C8.62588 2.50013 8.51364 2.44495 8.43724 2.35763C8.37311 2.28434 8.33424 2.1884 8.33424 2.08344C8.33424 1.9977 8.32556 1.91394 8.30903 1.833C8.1927 1.26336 7.68764 0.833375 7.08418 0.833375C6.48072 0.833375 5.97565 1.26336 5.85932 1.833C5.84279 1.91394 5.83411 1.9977 5.83411 2.08344C5.83411 2.1884 5.79524 2.28434 5.73111 2.35763C5.65472 2.44495 5.54247 2.50013 5.41742 2.50013H5.04241H5.03092H4.58405H4.16736H3.75067H3.33398L3.33398 2.08344C3.33398 1.85343 3.52066 1.66675 3.75067 1.66675H4.16736H4.58405H5.04241C5.10495 1.35941 5.23544 1.07648 5.41742 0.834344C5.79798 0.327996 6.4037 0 7.08418 0C7.76465 0 8.37038 0.327996 8.75093 0.834344C8.93291 1.07648 9.0634 1.35941 9.12595 1.66675H9.58431H10.001H10.4177C10.6477 1.66675 10.8344 1.85343 10.8344 2.08344Z" fill="#80868C" stroke="#80868C" stroke-width="21.3333"/>
<path d="M2.91669 7.50037C2.68668 7.50037 2.5 7.31369 2.5 7.08368C2.5 6.85367 2.68668 6.66699 2.91669 6.66699H11.2504C11.4805 6.66699 11.6671 6.85367 11.6671 7.08368C11.6671 7.31369 11.4805 7.50037 11.2504 7.50037H2.91669Z" fill="#80868C" stroke="#80868C" stroke-width="21.3333"/>
<path d="M2.91669 10.0004C2.68668 10.0004 2.5 9.81369 2.5 9.58368C2.5 9.35367 2.68668 9.16699 2.91669 9.16699H11.2504C11.4805 9.16699 11.6671 9.35367 11.6671 9.58368C11.6671 9.81369 11.4805 10.0004 11.2504 10.0004H2.91669Z" fill="#80868C" stroke="#80868C" stroke-width="21.3333"/>
<path d="M2.91669 12.5004C2.68668 12.5004 2.5 12.3137 2.5 12.0837C2.5 11.8537 2.68668 11.667 2.91669 11.667H11.2504C11.4805 11.667 11.6671 11.8537 11.6671 12.0837C11.6671 12.3137 11.4805 12.5004 11.2504 12.5004H2.91669Z" fill="#80868C" stroke="#80868C" stroke-width="21.3333"/>
</svg>
