<svg width="20" height="18" viewBox="0 0 20 18" fill="none" xmlns="http://www.w3.org/2000/svg">
<path d="M10.2929 0.292892C10.6534 -0.0675912 11.2206 -0.0953221 11.6129 0.209703L11.7071 0.292892L19.7071 8.29289C20.0676 8.65338 20.0953 9.22061 19.7903 9.6129L19.7071 9.70711L11.7071 17.7071C11.3166 18.0976 10.6834 18.0976 10.2929 17.7071C9.93241 17.3466 9.90468 16.7794 10.2097 16.3871L10.2929 16.2929L16.5858 10L1 10C0.447715 10 -4.17544e-07 9.55228 -3.93403e-07 9C-3.70986e-07 8.48716 0.386039 8.06449 0.883379 8.00672L1 8L16.5858 8L10.2929 1.70711C9.90237 1.31658 9.90237 0.683416 10.2929 0.292892Z" fill="#1F1F1F"/>
</svg>
